<svg width="720" height="720" viewBox="0 0 720 720" fill="none" xmlns="http://www.w3.org/2000/svg">
  <rect width="720" height="720" rx="64" fill="#0E4F69"/>
  <circle cx="560" cy="150" r="92" fill="#F2B365" opacity="0.95"/>
  <circle cx="138" cy="576" r="116" fill="#D4642A" opacity="0.84"/>
  <rect x="148" y="132" width="430" height="470" rx="34" fill="#F8FBFF"/>
  <rect x="184" y="180" width="358" height="70" rx="24" fill="#DCEBF5"/>
  <rect x="184" y="272" width="258" height="24" rx="12" fill="#BFD3E1"/>
  <rect x="184" y="314" width="314" height="24" rx="12" fill="#D6E4EF"/>
  <rect x="184" y="372" width="358" height="166" rx="28" fill="#EAF4FB"/>
  <circle cx="264" cy="456" r="54" fill="#D4642A"/>
  <path d="M264 470C286.091 470 304 452.091 304 430C304 407.909 286.091 390 264 390C241.909 390 224 407.909 224 430C224 452.091 241.909 470 264 470Z" fill="#FFD9B1"/>
  <path d="M220 522C228 488 250 470 264 470C278 470 300 488 308 522H220Z" fill="#0E4F69"/>
  <rect x="346" y="410" width="150" height="18" rx="9" fill="#BFD3E1"/>
  <rect x="346" y="444" width="110" height="18" rx="9" fill="#D4642A"/>
  <rect x="346" y="478" width="132" height="18" rx="9" fill="#BFD3E1"/>
  <path d="M542 210L600 268" stroke="#F8FBFF" stroke-width="18" stroke-linecap="round"/>
  <path d="M600 210L542 268" stroke="#F8FBFF" stroke-width="18" stroke-linecap="round"/>
</svg>
