<svg width="860" height="620" viewBox="0 0 860 620" fill="none" xmlns="http://www.w3.org/2000/svg">
  <rect width="860" height="620" rx="42" fill="#0F5D77"/>
  <circle cx="734" cy="120" r="84" fill="#F2B365"/>
  <circle cx="122" cy="540" r="108" fill="#D4642A" opacity="0.88"/>
  <rect x="112" y="92" width="636" height="432" rx="34" fill="#F8FBFF"/>
  <rect x="154" y="132" width="256" height="52" rx="20" fill="#DCECF8"/>
  <rect x="430" y="132" width="276" height="52" rx="20" fill="#E9F4FB"/>
  <rect x="154" y="214" width="552" height="268" rx="28" fill="#EEF7FC"/>
  <rect x="196" y="256" width="224" height="184" rx="24" fill="#FFFFFF"/>
  <rect x="446" y="256" width="218" height="34" rx="17" fill="#C6DDED"/>
  <rect x="446" y="314" width="176" height="22" rx="11" fill="#D4642A"/>
  <rect x="446" y="356" width="192" height="22" rx="11" fill="#B9D4E5"/>
  <rect x="446" y="398" width="144" height="22" rx="11" fill="#D9E8F2"/>
  <circle cx="308" cy="320" r="56" fill="#D4642A"/>
  <path d="M308 344C331.196 344 350 325.196 350 302C350 278.804 331.196 260 308 260C284.804 260 266 278.804 266 302C266 325.196 284.804 344 308 344Z" fill="#FFD6AE"/>
  <path d="M252 424C262.5 382 289.5 360 308 360C326.5 360 353.5 382 364 424H252Z" fill="#0F5D77"/>
  <path d="M564 92V40" stroke="#F8FBFF" stroke-width="16" stroke-linecap="round"/>
  <path d="M590 66H538" stroke="#F8FBFF" stroke-width="16" stroke-linecap="round"/>
  <path d="M690 462C672 496 632 520 590 520C530 520 480 472 480 414C480 356 530 308 590 308C632 308 672 332 690 366" stroke="#FFFFFF" stroke-opacity="0.9" stroke-width="18" stroke-linecap="round"/>
</svg>
